<mxfile host="app.diagrams.net" agent="Mozilla/5.0 (Macintosh; Intel Mac OS X 10_15_7) AppleWebKit/537.36 (KHTML, like Gecko) Chrome/137.0.0.0 Safari/537.36 Edg/137.0.0.0" version="28.1.2">
  <diagram name="第 1 页" id="LQqQd4amGIoYcXpUx-St">
    <mxGraphModel dx="994" dy="563" grid="1" gridSize="10" guides="1" tooltips="1" connect="1" arrows="1" fold="1" page="1" pageScale="1" pageWidth="1169" pageHeight="827" math="0" shadow="0">
      <root>
        <mxCell id="0" />
        <mxCell id="1" parent="0" />
        <mxCell id="5RL23YDhjcmZTed9TFCN-3" style="edgeStyle=orthogonalEdgeStyle;rounded=0;orthogonalLoop=1;jettySize=auto;html=1;exitX=0.5;exitY=1;exitDx=0;exitDy=0;" edge="1" parent="1" source="5RL23YDhjcmZTed9TFCN-1" target="5RL23YDhjcmZTed9TFCN-2">
          <mxGeometry relative="1" as="geometry" />
        </mxCell>
        <mxCell id="5RL23YDhjcmZTed9TFCN-1" value="&lt;font style=&quot;font-size: 16px;&quot;&gt;数据库--写数据&lt;/font&gt;" style="rounded=1;whiteSpace=wrap;html=1;" vertex="1" parent="1">
          <mxGeometry x="500" y="140" width="120" height="60" as="geometry" />
        </mxCell>
        <mxCell id="5RL23YDhjcmZTed9TFCN-2" value="&lt;font style=&quot;font-size: 16px;&quot;&gt;缓存--更新&lt;/font&gt;" style="rounded=1;whiteSpace=wrap;html=1;" vertex="1" parent="1">
          <mxGeometry x="500" y="400" width="120" height="60" as="geometry" />
        </mxCell>
        <mxCell id="5RL23YDhjcmZTed9TFCN-4" style="edgeStyle=orthogonalEdgeStyle;rounded=0;orthogonalLoop=1;jettySize=auto;html=1;exitX=0.5;exitY=1;exitDx=0;exitDy=0;" edge="1" parent="1" source="5RL23YDhjcmZTed9TFCN-5" target="5RL23YDhjcmZTed9TFCN-6">
          <mxGeometry relative="1" as="geometry" />
        </mxCell>
        <mxCell id="5RL23YDhjcmZTed9TFCN-5" value="&lt;font style=&quot;font-size: 16px;&quot;&gt;数据库--写数据&lt;/font&gt;" style="rounded=1;whiteSpace=wrap;html=1;" vertex="1" parent="1">
          <mxGeometry x="660" y="220" width="120" height="60" as="geometry" />
        </mxCell>
        <mxCell id="5RL23YDhjcmZTed9TFCN-6" value="&lt;font style=&quot;font-size: 16px;&quot;&gt;缓存--更新&lt;/font&gt;" style="rounded=1;whiteSpace=wrap;html=1;" vertex="1" parent="1">
          <mxGeometry x="660" y="330" width="120" height="60" as="geometry" />
        </mxCell>
        <mxCell id="5RL23YDhjcmZTed9TFCN-10" style="edgeStyle=orthogonalEdgeStyle;rounded=0;orthogonalLoop=1;jettySize=auto;html=1;exitX=0.5;exitY=1;exitDx=0;exitDy=0;entryX=0.5;entryY=0;entryDx=0;entryDy=0;" edge="1" parent="1" source="5RL23YDhjcmZTed9TFCN-7" target="5RL23YDhjcmZTed9TFCN-1">
          <mxGeometry relative="1" as="geometry" />
        </mxCell>
        <mxCell id="5RL23YDhjcmZTed9TFCN-7" value="&lt;font style=&quot;font-size: 16px;&quot;&gt;线程一&lt;/font&gt;" style="ellipse;whiteSpace=wrap;html=1;aspect=fixed;" vertex="1" parent="1">
          <mxGeometry x="520" y="20" width="80" height="80" as="geometry" />
        </mxCell>
        <mxCell id="5RL23YDhjcmZTed9TFCN-9" style="edgeStyle=orthogonalEdgeStyle;rounded=0;orthogonalLoop=1;jettySize=auto;html=1;exitX=0.5;exitY=1;exitDx=0;exitDy=0;" edge="1" parent="1" source="5RL23YDhjcmZTed9TFCN-8" target="5RL23YDhjcmZTed9TFCN-5">
          <mxGeometry relative="1" as="geometry" />
        </mxCell>
        <mxCell id="5RL23YDhjcmZTed9TFCN-8" value="线程二" style="ellipse;whiteSpace=wrap;html=1;aspect=fixed;" vertex="1" parent="1">
          <mxGeometry x="680" y="20" width="80" height="80" as="geometry" />
        </mxCell>
        <mxCell id="5RL23YDhjcmZTed9TFCN-11" value="" style="shape=flexArrow;endArrow=classic;html=1;rounded=0;" edge="1" parent="1">
          <mxGeometry width="50" height="50" relative="1" as="geometry">
            <mxPoint x="440" y="50" as="sourcePoint" />
            <mxPoint x="440" y="430" as="targetPoint" />
          </mxGeometry>
        </mxCell>
        <mxCell id="5RL23YDhjcmZTed9TFCN-12" value="&lt;font style=&quot;font-size: 16px;&quot;&gt;时&lt;/font&gt;&lt;div&gt;&lt;font style=&quot;font-size: 16px;&quot;&gt;间&lt;/font&gt;&lt;/div&gt;&lt;div&gt;&lt;font style=&quot;font-size: 16px;&quot;&gt;线&lt;/font&gt;&lt;/div&gt;" style="text;html=1;align=center;verticalAlign=middle;whiteSpace=wrap;rounded=0;" vertex="1" parent="1">
          <mxGeometry x="390" y="200" width="60" height="70" as="geometry" />
        </mxCell>
      </root>
    </mxGraphModel>
  </diagram>
</mxfile>
